<svg width="900" height="540" viewBox="0 0 900 540" fill="none" xmlns="http://www.w3.org/2000/svg">
  <rect width="900" height="540" rx="36" fill="#101712"/>
  <rect x="60" y="70" width="300" height="170" rx="22" fill="#1A251E" stroke="#2C3D31" stroke-width="2"/>
  <rect x="90" y="110" width="180" height="20" rx="10" fill="#2F4A3A"/>
  <rect x="90" y="144" width="120" height="14" rx="7" fill="#FFB43D"/>
  <rect x="90" y="170" width="150" height="14" rx="7" fill="#9AE6B4"/>
  <rect x="420" y="70" width="420" height="170" rx="22" fill="#1A251E" stroke="#2C3D31" stroke-width="2"/>
  <rect x="450" y="108" width="140" height="16" rx="8" fill="#2F4A3A"/>
  <rect x="450" y="136" width="220" height="14" rx="7" fill="#2F4A3A"/>
  <rect x="450" y="162" width="80" height="14" rx="7" fill="#FFB43D"/>
  <rect x="60" y="270" width="780" height="200" rx="26" fill="#18241C" stroke="#2C3D31" stroke-width="2"/>
  <rect x="92" y="312" width="210" height="22" rx="11" fill="#2F4A3A"/>
  <rect x="92" y="352" width="260" height="16" rx="8" fill="#2F4A3A"/>
  <rect x="92" y="382" width="180" height="14" rx="7" fill="#9AE6B4"/>
  <rect x="420" y="312" width="180" height="16" rx="8" fill="#2F4A3A"/>
  <rect x="420" y="340" width="260" height="14" rx="7" fill="#2F4A3A"/>
  <rect x="420" y="368" width="120" height="14" rx="7" fill="#FFB43D"/>
  <circle cx="760" cy="360" r="42" fill="#2F4A3A"/>
  <circle cx="760" cy="360" r="24" fill="#FFB43D"/>
</svg>
